<svg xmlns="http://www.w3.org/2000/svg" viewBox="0 0 226.793 189.888"><defs><style>.a,.b,.c{fill:#695a69;}.a{font-size:107px;font-family:Ubuntu-Regular, Ubuntu;}.b{stroke:#707070;}.d{fill:#826e77;}.e{fill:#7cdaaf;}.f{fill:#e17277;}.g{fill:#f2d057;}.h{stroke:none;}.i{fill:none;}</style></defs><g transform="translate(-143.374)"><text class="a" transform="translate(190.167 169.888)"><tspan x="0" y="0">ark.</tspan></text><g class="b" transform="translate(174.844 0)"><ellipse class="h" cx="24.884" cy="30.355" rx="24.884" ry="30.355"/><ellipse class="i" cx="24.884" cy="30.355" rx="24.384" ry="29.855"/></g><path class="c" d="M204.055,15.252V.706c0-.39-.608-.706-1.359-.706h-8.291c-.751,0-1.359.316-1.359.706V116.124a6.837,6.837,0,0,1,1.031-.082h4.474V161.8H187.542l-11.009,3.812v3.812h44.035v-3.812L209.559,161.8h0V123.668l-2.974-6.182a3.325,3.325,0,0,0-2.53-1.362V15.252Z" transform="translate(-33.159 0)"/><path class="d" d="M203.746,328.76h-4.474a6.833,6.833,0,0,0-1.031.082,3.323,3.323,0,0,0-2.529,1.362l-2.975,6.182v38.131h11.008Z" transform="translate(-38.355 -212.718)"/><path class="c" d="M256.541,0H234.655a1.409,1.409,0,0,0-1.407,1.412V59.6a1.409,1.409,0,0,0,1.407,1.412h21.886a1.409,1.409,0,0,0,1.407-1.412V1.412A1.409,1.409,0,0,0,256.541,0ZM245.6,55.29a6.673,6.673,0,1,1,6.65-6.671,6.673,6.673,0,0,1-6.65,6.671Zm0-18.112a6.673,6.673,0,1,1,6.65-6.671,6.673,6.673,0,0,1-6.65,6.671Zm0-18.112a6.673,6.673,0,1,1,6.65-6.671,6.673,6.673,0,0,1-6.65,6.671Z" transform="translate(-58.22)"/><ellipse class="e" cx="6.65" cy="6.673" rx="6.65" ry="6.673" transform="translate(180.729 41.944)"/><ellipse class="f" cx="6.65" cy="6.673" rx="6.65" ry="6.673" transform="translate(180.729 5.72)"/><ellipse class="g" cx="6.65" cy="6.673" rx="6.65" ry="6.673" transform="translate(180.729 23.832)"/><rect class="d" width="5.7" height="5.72" transform="translate(169.329 44.804)"/><rect class="d" width="5.7" height="5.72" transform="translate(169.329 9.533)"/></g></svg>